Patient4_TMGait_0pt6_02_right_35_EMG.mot
version=1
nRows=16
nColumns=33
inDegrees=no
endheader
time	1LAddLong	2LGlutMax	3LGlutMed	4LIliopsoas	5LSemiMemb	6LBicFemLong	7LRecFem	8LVastMed	9LVastLat	10LGasMed	11LTibAnt	12lTibPost	13LPeroneusLong	14LSol	15LExtDigLong	16LFlexDigLong	17RAddLong	18RGlutMax	19RGlutMed	20RIliopsoas	21RSemiMemb	22RBicFemLong	23RRecFem	24RVastMed	25RVastLat	26RGasMed	27RTibAnt	28RTibPost	29RPeroneusLong	30RSol	31RExtDigLong	32RFlexDigLong
42.13	0.00824	-0.17838	-0.052338	-0.002747	0.11078	0.039825	0.024109	0.007477	-0.012054	-0.57297	-0.006714	0.076141	0.088959	-0.29221	0.047302	0.036926	-0.030975	-0.088654	-0.001526	0.014343	-0.044098	0.031586	-0.003204	-0.085907	-0.014191	-0.002136	0.52033	-0.013428	-0.098724	-0.08255	-0.004425	-0.014191
42.131	-0.000763	-0.16693	-0.001678	0.004425	0.0737	0.16235	0.047302	0.007477	0.014801	-0.36682	0.029602	-0.00351	-0.073853	-0.43106	0.007935	0.018921	-0.032043	-0.11368	0.037689	0.059814	-0.051117	0.03067	-0.083771	-0.075989	-0.014343	-0.007172	0.49286	-0.006104	-0.10696	-0.075378	-0.000305	-0.011292
42.132	0.000916	-0.16861	0.03006	0.003357	0.058289	0.21362	0.075836	-0.00061	0.017548	-0.35446	0.027008	0.021515	-0.11887	0.046082	0.024719	0.011749	-0.028534	-0.1445	0.019836	0.070801	-0.040588	0.033722	-0.094757	-0.059052	-0.02182	0.000763	0.36438	-0.01236	0.048676	-0.10757	-0.003662	-0.006561
42.133	-0.002289	-0.14725	0.039063	0.007324	0.023956	0.12573	0.057373	0.010529	-0.008698	-0.3241	0.016022	-0.015259	0.10956	0.17975	0.028839	-0.00473	-0.016785	-0.10819	0.10056	0.086212	-0.045624	0.035858	-0.18234	-0.056915	-0.016632	0.007019	-0.022583	-0.009613	0.092621	-0.096588	0.000153	-0.002747
42.134	-0.002747	-0.087433	0.078278	0.052032	0.011444	0.098114	0.00824	0.010986	-0.01236	-0.21469	0.003204	-0.00946	0.28641	0.020142	0.005798	0.004578	0.019836	-0.098114	0.052948	0.03006	-0.037079	0.039825	-0.15579	-0.076447	-0.011902	0.005188	-0.64301	-0.00885	0.16449	-0.031128	0.001831	-0.004578
42.135	-0.001526	-0.09613	0.14725	0.00946	0.008545	0.02655	-0.006866	0.010834	-0.000305	-0.010223	0.016479	-0.001984	0.17441	0.11231	-0.023804	-0.008698	0.022888	-0.061188	0.009308	0.006561	-0.042114	0.023499	-0.062103	-0.094147	-0.016479	0.005798	-0.33279	-0.006256	0.11032	0.057526	-0.002441	0.000153
42.136	-0.005646	-0.097198	0.092163	-0.014038	0.010529	-0.032043	0.015411	0.00885	0.010071	0.005951	0.021362	0.036011	0.044098	0.1413	-0.06134	0.002899	0.015259	-0.10956	-0.2626	-0.15366	-0.024261	0.035858	-0.032501	-0.083313	-0.02121	0.003815	-0.13504	-0.012054	-0.029297	0.1207	-0.00061	-0.001831
42.137	-0.004883	-0.066071	0.075531	-0.003357	-0.012817	-0.003357	-0.027313	0.007477	0.026093	0.005188	0.014496	0.045319	0.11734	0.26825	-0.055237	-0.000458	-0.005798	-0.13092	-0.1831	-0.18051	-0.019226	0.036926	-0.029449	-0.049896	-0.012054	0.003204	-0.22064	-0.007019	-0.12619	0.048218	-0.001526	-0.003967
42.138	-0.002899	-0.043182	-0.044708	-0.005493	-0.01236	0.033569	-0.018768	0.007477	0.010376	0.24933	-0.010071	-0.20706	0.79041	0.17654	-0.025787	0.010071	-0.003357	-0.076904	-0.047455	-0.080414	-0.012207	0.036163	-0.044098	-0.050507	-0.00412	-0.003052	-0.26901	-0.00885	-0.091248	0.009613	0.000153	-0.004883
42.139	0.003052	-0.06134	-0.085907	-0.002289	0.013428	0.058441	0.001831	0.007935	0.002747	0.21591	-0.016632	-0.079956	-0.21042	0.14435	0.028992	0.052338	-0.012665	-0.050812	0.016937	0.11322	-0.014801	0.052185	-0.024719	-0.058136	0.001526	-0.005646	-0.19669	-0.005035	-0.17471	-0.007324	-0.00351	-0.000305
42.14	-0.005951	-0.087128	-0.02594	-0.005035	0.007935	0.10468	0.00473	0.004425	0.007324	0.031586	-0.028229	0.17792	-0.045776	0.026398	0.006866	0.028076	-0.012054	-0.080414	-0.040436	0.24628	-0.021057	0.041351	-0.036316	-0.021362	-0.001831	0.00061	-0.28961	-0.007629	-0.12451	-0.045776	-0.000458	-0.003357
42.141	-0.003357	-0.10422	0.015869	-0.015869	0.001068	0.14862	0.016785	0.040588	0.010529	0.20691	0.026093	0.093536	0.04303	0.072327	0.075836	-0.007477	-0.00473	-0.1265	0.059662	0.25269	-0.035553	0.041809	-0.016785	-0.021667	-0.000916	0.010986	-0.42908	-0.005188	-0.059814	-0.12512	-0.00412	-0.00351
42.142	-0.003357	-0.10666	0.004272	0.000763	0.002594	0.19119	-0.006104	0.007629	0.008392	0.22537	0.092316	-0.12466	0.78507	-0.081024	0.10071	-0.042114	-0.002594	-0.11734	0.22507	0.1387	-0.020905	0.036774	-0.037842	0.017548	0.003815	0.010223	-0.58105	-0.004425	0.13016	-0.11215	-0.002136	-0.001678
42.143	-0.000763	-0.050201	0.036621	-0.000916	-0.009003	0.13779	-0.031128	0.010071	0.032501	-0.091705	0.045013	0.02243	0.30685	0.054474	0.069885	-0.042877	0.003662	-0.076599	0.19974	0.012665	0.004883	0.038757	-0.001526	-0.037384	-0.011444	0.006256	-0.53406	-0.001678	0.17242	-0.06485	-0.000763	-0.00473
42.144	-0.004578	-0.005798	0.052795	0.004578	-0.016937	0.059967	-0.019379	0.00473	0.055847	-0.31448	-0.043945	-0.031281	-0.28214	0.22537	-0.076904	0.028534	0.000153	-0.055237	-0.079803	-0.078125	0.011444	0.036926	-0.020447	-0.01358	-0.003052	-0.003052	-0.41657	-0.006256	0.12802	-0.050659	0.00061	-0.000305
42.145	-0.001831	0.019836	0.038452	0.002136	-0.020142	0.069733	-0.02121	0.013123	0.017853	-0.25726	-0.076752	0.13489	-0.6543	0.1535	-0.23086	0.1059	0.010223	-0.053253	-0.3508	-0.24048	-0.059814	0.039368	-0.030365	-0.048065	-0.00824	-0.002136	-0.040741	-0.005188	0.01297	-0.016785	-0.002289	0.00473
